<svg t="1658995618500" class="icon" viewBox="0 0 1024 1024" version="1.1" xmlns="http://www.w3.org/2000/svg" p-id="18755" width="200" height="200"><path d="M990.816 698.7712h-0.0832c2.2272 19.0656 4.7104 40.4352 7.6672 64.1664 2.912 23.6928 5.6576 47.8528 8.224 72.6976 2.5152 24.6336 5.2544 49.248 8.224 73.8304l7.6736 66.2272c4.288 34.2656-10.5856 50.3296-44.9024 48.1024a1944.896 1944.896 0 0 1-61.824-5.9968c-23.0016-2.5664-46.4832-5.312-70.6048-8.224l-71.68-8.6976a4812.9408 4812.9408 0 0 0-65.12-7.7056c-21.1648-2.144-34.6176-8.1856-40.4864-18.08-5.8688-9.7664-2.5728-20.9472 9.856-33.3248 7.968-7.3216 17.8624-17.344 29.5616-30.112 11.6928-12.768 21.504-23.1296 29.5616-31.1424 7.968-8.7808 10.5408-16.704 7.6288-24.0768a87.808 87.808 0 0 0-17.4848-25.2288l-55.7824-53.5872a1896.992 1896.992 0 0 1-55.9104-55.7696 252.4416 252.4416 0 0 1-13.1072-14.2656 53.8496 53.8496 0 0 1-9.856-16.96 35.8912 35.8912 0 0 1-1.0688-19.6672c1.4528-6.9376 6.1696-14.3872 14.2208-22.4a309.376 309.376 0 0 0 10.9248-11.52c2.7456-3.1104 5.6768-6.0416 8.7872-8.7872a193.5168 193.5168 0 0 0 21.888-22.4448c14.5664-14.56 28.1088-20.7744 40.448-18.5472 12.4224 2.144 25.92 10.5408 40.4864 25.1008 14.656 14.656 29.568 29.4272 44.9024 44.3392a5804.704 5804.704 0 0 1 51.4112 50.8864c13.9264 13.152 25.7472 22.272 35.5584 27.4176 9.856 5.056 19.5392 2.8672 29.0048-6.5984a908.864 908.864 0 0 1 24.64-23.5584 836.5184 836.5184 0 0 0 25.792-24.5888c12.3392-12.4224 23.4752-17.1328 33.3312-14.2208 9.856 2.912 15.8528 13.8752 18.1184 32.768v-0.032zM53.8624 359.6864c-9.4656-2.9568-15.3344-13.8816-17.472-32.8128A4898.1632 4898.1632 0 0 0 28.672 262.912c-2.784-23.776-5.568-47.9744-8.1408-72.7744a4278.784 4278.784 0 0 0-8.224-73.8944c-2.912-24.416-5.4016-46.4768-7.6288-66.2208-2.0992-18.9376 0.1728-32.128 7.1552-39.4112C18.7328 3.328 30.944 0.4224 48.384 1.8368c18.2528 1.408 38.912 3.4688 61.824 5.9968 23.008 2.5664 46.5728 5.312 70.6112 8.224l71.68 8.6976c23.6864 2.9504 45.4144 5.5232 65.12 7.7056 21.8496 2.1888 35.5584 8.1856 41.0432 18.08 5.5296 9.7664 2.016 20.9472-10.4512 33.3248a808.448 808.448 0 0 0-26.7776 28.4416 770.2784 770.2784 0 0 1-27.8528 29.5552c-8.8256 8.7872-11.648 16.704-8.8256 24.1216 2.9568 7.2768 9.1264 15.68 18.6368 25.1008a438.7712 438.7712 0 0 0 26.8224 26.816c16.9664 15.5072 33.5488 31.3536 49.7856 47.6288l27.4176 27.3728c4.288 4.288 8.576 9.472 12.512 15.3344a59.3728 59.3728 0 0 1 8.7808 18.5472c1.824 6.848 1.632 14.08-0.5568 20.8192a53.5424 53.5424 0 0 1-14.2208 21.888l-12.0384 12c-2.8288 2.8224-5.568 5.7792-8.2304 8.7808-2.8352 3.1616-5.952 6.0736-9.2928 8.6912L372.3264 412.16c-14.5664 14.6496-27.2064 20.0896-37.7024 16.3648-10.624-3.6032-23.2256-12.7232-37.792-27.2896a4158.3232 4158.3232 0 0 0-41.5424-41.0688 3415.6288 3415.6288 0 0 1-48.1536-47.584 144.0768 144.0768 0 0 0-35.0848-27.328c-10.1568-5.1392-20.0128-2.912-29.4784 6.5536a385.6256 385.6256 0 0 1-27.4176 26.816 884.9728 884.9728 0 0 0-28.4096 26.7712C74.3232 357.824 63.36 362.5344 53.888 359.616l-0.0256 0.064zM909.888 8.4288c23.9872-2.912 45.9264-5.4784 65.5488-7.6672 18.9824-2.1376 32.128 0.2176 39.5008 7.1104 7.2384 6.9824 10.1568 19.5392 8.704 37.7856-1.376 18.2016-3.4752 38.8096-6.0032 61.8112-2.5728 23.0016-5.312 46.4768-8.224 70.5472l-8.7872 71.712c-2.8672 23.68-5.44 45.4016-7.6672 65.1072-2.0992 21.12-8.1408 34.656-17.9968 40.4352-9.856 5.824-20.992 2.2272-33.4144-10.9632-7.2832-7.2832-16.7552-16.1472-28.4096-26.7712a843.8848 843.8848 0 0 1-29.5616-27.84c-8.7808-8.1408-16.7936-10.8416-24.1216-8.2688-7.232 2.5664-15.68 8.5632-25.1008 18.0736-19.712 19.6608-37.0624 37.568-51.968 53.5872-15.0016 16.0192-32.736 34.272-53.1328 54.7008a104.896 104.896 0 0 1-15.3344 12.5504 61.9328 61.9328 0 0 1-18.6368 8.7808 36.8512 36.8512 0 0 1-20.7808-0.5568 50.2144 50.2144 0 0 1-21.8496-15.3344 276.0512 276.0512 0 0 0-11.5264-10.9248 217.5104 217.5104 0 0 1-9.2544-8.6912c-3.0272-3.0208-6.144-5.952-9.344-8.7808a154.1312 154.1312 0 0 1-12.544-13.1072c-14.656-14.656-20.4416-27.4176-17.5296-38.336 2.9568-10.9696 12-23.7376 27.3344-38.2976l41.6448-43.7376c13.8368-14.6496 30.2464-31.3984 49.184-50.3296 13.9712-13.1072 23.3536-24.8448 28.448-35.0016 5.1456-10.2784 2.5728-19.6992-7.6672-28.5248a780.6912 780.6912 0 0 1-25.1072-26.7328 734.4384 734.4384 0 0 0-26.2592-27.8848c-12.4288-12.416-17.1392-23.3472-14.2272-32.896 2.8736-9.472 13.7984-15.3344 32.7744-17.4336l64.0064-7.6672c24.416-3.0336 48.8704-5.7792 73.3504-8.224a4099.648 4099.648 0 0 0 73.9072-8.2304h0.0448zM347.776 591.1232c6.976 1.8048 14.4384 6.688 22.4512 14.6944 4.4096 4.416 8.224 8.096 11.52 10.9696 3.2576 2.912 6.3424 5.824 9.2544 8.7808l8.7872 9.8048 13.1072 12.0384c14.656 14.656 20.992 27.8848 19.1488 39.968-1.792 12.032-10.4512 25.7024-25.7024 41.0368a4490.3232 4490.3232 0 0 0-43.7888 44.3328c-15.3344 15.68-32.4736 32.9856-51.4112 51.9168-13.152 13.1968-21.376 23.904-24.64 32.3008-3.296 8.352-0.2112 17.344 9.2608 26.816 7.3216 6.5536 15.552 14.7776 24.6784 24.5824a789.3824 789.3824 0 0 0 24.6336 25.792c12.4224 12.3328 16.9216 23.296 13.664 32.768-3.296 9.472-14.4384 15.3344-33.4144 17.5168-18.944 2.2272-40.064 4.7168-63.4112 7.6672-23.392 2.9184-47.6416 5.824-72.832 8.7872l-74.4192 8.6912c-24.4224 2.912-46.4896 5.5296-66.24 7.6672-18.1632 1.4592-31.1488-1.28-38.816-8.1344-7.6672-6.9824-10.7072-19.1936-9.2544-36.672 1.3696-18.2912 3.4304-38.8928 5.9968-61.856 2.5728-22.9568 5.2736-46.5152 8.2304-70.592l8.6976-71.616c2.912-23.7376 5.4848-45.4528 7.6672-65.1136 2.2272-21.888 8.224-35.552 18.1248-41.0816 9.7664-5.4784 20.9088-2.0096 33.3312 10.496 7.2832 7.2384 17.3504 16.704 30.1184 28.352 12.7232 11.6992 23.136 21.5552 31.1488 29.568 8.7808 8.7744 16.0192 12.544 21.8496 11.4752 5.9136-1.1136 13.1968-6.4256 21.9328-15.8528a3221.1648 3221.1648 0 0 0 27.424-27.9232 1943.552 1943.552 0 0 1 26.176-26.816 1841.088 1841.088 0 0 0 26.816-27.328c9.088-9.472 18.8544-19.2768 29.0112-29.5616 4.416-4.3648 9.0816-8.7808 14.2208-13.1072a52.288 52.288 0 0 1 16.9664-9.856 32.8256 32.8256 0 0 1 19.712-0.512z" p-id="18756"></path></svg>