<svg t="1662741822523" class="icon" viewBox="0 0 1024 1024" version="1.1" xmlns="http://www.w3.org/2000/svg" p-id="1478" width="200" height="200"><path d="M164.693333 236.288A108.714667 108.714667 0 0 1 273.92 128h317.525333a108.714667 108.714667 0 0 1 109.141334 108.288v88.618667h49.578666a108.714667 108.714667 0 0 1 109.184 108.330666v403.669334h49.578667c16.469333 0 29.781333 13.226667 29.781333 29.568a29.653333 29.653333 0 0 1-29.781333 29.525333H115.114667A29.653333 29.653333 0 0 1 85.333333 866.474667c0-16.341333 13.312-29.568 29.781334-29.568H164.693333V236.288z m59.562667 600.618667h416.725333V236.288c0-27.178667-22.186667-49.194667-49.578666-49.194667H273.834667c-27.434667 0-49.621333 22.016-49.621334 49.194667v600.618667z m476.288 0h99.2v-403.669334c0-27.178667-22.186667-49.237333-49.621333-49.237333H700.586667v452.906667zM313.557333 285.525333a29.653333 29.653333 0 0 0-29.781333 29.568c0 16.298667 13.354667 29.525333 29.781333 29.525334h238.122667c16.469333 0 29.781333-13.226667 29.781333-29.525334a29.653333 29.653333 0 0 0-29.781333-29.568H313.6z m0 196.949334A29.653333 29.653333 0 0 0 283.733333 512c0 16.298667 13.354667 29.525333 29.781334 29.525333h238.122666c16.469333 0 29.781333-13.226667 29.781334-29.525333a29.653333 29.653333 0 0 0-29.781334-29.525333H313.6z m0 177.194666a29.653333 29.653333 0 0 0-29.781333 29.568c0 16.298667 13.354667 29.525333 29.781333 29.525334h238.122667c16.469333 0 29.781333-13.226667 29.781333-29.525334a29.653333 29.653333 0 0 0-29.781333-29.568H313.6z" p-id="1479"></path></svg>