<svg t="1677404495159" class="icon" viewBox="0 0 1024 1024" version="1.1" xmlns="http://www.w3.org/2000/svg" p-id="12403" width="200" height="200"><path d="M512.91136 512.77027555m-150.24924445 0a150.24924445 150.24924445 0 1 0 300.4984889 0 150.24924445 150.24924445 0 1 0-300.4984889 0Z" p-id="12404"></path><path d="M830.57777778 53.47555555H194.56c-78.54648889 0-142.22222222 63.67459555-142.22222222 142.22222223v633.74222222c0 78.54648889 63.67573333 142.22222222 142.22222222 142.22222222h636.01777778c78.54648889 0 142.22222222-63.67573333 142.22222222-142.22222222V195.69777778c0-78.54762667-63.67573333-142.22222222-142.22222222-142.22222223z m6.82666667 482.37340445c0 9.58577778-7.25788445 17.35793778-16.84366223 17.35793778l-72.29553777 11.76803555a239.64672 239.64672 0 0 1-31.14097778 75.88067556l43.31861333 60.05077333c6.77546667 6.77888 6.78456889 17.77777778 0.00682667 24.55779556l-33.74648889 33.75559111c-6.77888 6.77774222-17.77322667 6.78570667-24.55210667 0.01024l-59.74016-43.06033778c-22.89208889 14.61134222-48.41813333 25.52945778-75.70545778 31.75196444l-11.79192888 72.99299556c0 9.58577778-7.77102222 17.62645333-17.35566223 17.62645334h-47.72636444c-9.58464 0-17.35566222-8.04067555-17.35566223-17.62645334l-11.73504-72.78250666a239.65923555 239.65923555 0 0 1-75.91936-31.15235556l-60.02460444 43.30040889c-6.77660445 6.77546667-17.76867555 6.77774222-24.54869333 0l-33.75559111-33.74762667c-6.77888-6.77774222-6.79708445-17.7664-0.01706667-24.54414222l43.03985778-59.71171556c-14.60451555-22.87843555-25.51921778-48.38741333-31.74172445-75.65539555l-73.41283555-11.84881778c-9.58464 0-17.76412445-7.76760889-17.76412445-17.35338667v-47.72864c0-9.58464 8.17948445-17.35224889 17.76412445-17.35224888l73.20234667-11.7919289a239.60917333 239.60917333 0 0 1 31.13870222-75.85905777l-43.29699556-60.02005333c-6.77888-6.77774222-6.77888-17.76071111 0-24.53845334l33.74648889-33.73738666c6.77660445-6.77888 17.76526222-6.76067555 24.54186667 0.01820444l59.71285333 43.1104c22.86933333-14.59655111 48.36465778-25.36903111 75.62012445-31.59267556l11.88181333-73.21258666c0-9.58691555 7.76988445-16.97905778 17.35452444-16.97905778h47.72750223c9.58464 0 17.35338667 7.39328 17.35338666 16.97905778l11.82492444 72.71651555a239.59438222 239.59438222 0 0 1 75.8226489 31.1296l60.04622222-43.31861333c6.77660445-6.77660445 17.76753778-6.78456889 24.54641778-0.00796444l33.73738666 33.74762666c6.77774222 6.77774222 6.75498667 17.77436445-0.02503111 24.55096889l-43.12974222 59.73902222c14.60565333 22.88412445 25.38154667 48.39651555 31.60177777 75.67132445l72.79274667 11.82606222c9.58577778 0 16.84366222 7.77102222 16.84366223 17.3568v47.72295111z" p-id="12405"></path></svg>